<svg xmlns="http://www.w3.org/2000/svg" viewBox="0 0 120 120" fill="none" aria-hidden="true">
  <defs>
    <linearGradient id="rb-bg" x1="0%" y1="0%" x2="100%" y2="100%">
      <stop offset="0%" style="stop-color:#c45c2a"/>
      <stop offset="100%" style="stop-color:#e8943a"/>
    </linearGradient>
  </defs>
  <rect width="120" height="120" rx="22" fill="url(#rb-bg)"/>
  <!-- Bowl -->
  <path fill="rgba(255,255,255,0.2)" stroke="#fff8f0" stroke-width="2.2" stroke-linecap="round"
    d="M28 58c0-4 4-8 10-8h44c6 0 10 4 10 8v4c0 18-14 32-32 32S28 80 28 66v-8Z"/>
  <ellipse cx="60" cy="58" rx="28" ry="8" fill="rgba(0,0,0,0.12)"/>
  <!-- Steam -->
  <path stroke="rgba(255,255,255,0.7)" stroke-width="2" stroke-linecap="round" fill="none"
    d="M48 38c4-6 0-10-4-14M60 34c5-7 1-12-3-17M72 40c4-5 1-9-2-13"/>
  <!-- AI sparkles -->
  <path fill="#fff" d="M86 24l1.5 4.5 4.5 1.5-4.5 1.5L86 36l-1.5-4.5L80 30l4.5-1.5L86 24Z" opacity=".95"/>
  <path fill="#fff" d="M96 42l1 3 3 1-3 1-1 3-1-3-3-1 3-1 1-3Z" opacity=".75"/>
</svg>
